<svg data-v-423bf9ae="" xmlns="http://www.w3.org/2000/svg" viewBox="0 0 225 90" class="iconLeft"><!----><!----><!----><g data-v-423bf9ae="" id="5c7e4e8d-c201-4593-bd1a-b2a15470f567" fill="#23073F" transform="matrix(4.901960875977926,0,0,4.901960875977926,142.0060142087322,-3.0392156355842275)"><path d="M10.21 8.81C10.21 8.05 10.09 7.36 9.86 6.73C9.62 6.10 9.28 5.56 8.85 5.11C8.41 4.66 7.90 4.31 7.28 4.06C6.66 3.81 5.99 3.68 5.26 3.68C4.54 3.68 3.86 3.81 3.25 4.06C2.63 4.31 2.11 4.68 1.68 5.12C1.25 5.57 0.91 6.12 0.67 6.75C0.43 7.38 0.31 8.06 0.31 8.82C0.31 9.58 0.43 10.26 0.67 10.89C0.91 11.52 1.25 12.07 1.68 12.52C2.11 12.96 2.63 13.31 3.25 13.57C3.86 13.82 4.54 13.96 5.26 13.96C5.57 13.96 5.88 13.93 6.16 13.87C6.44 13.82 6.72 13.76 6.99 13.68L8.75 15.61C8.86 15.72 8.96 15.81 9.10 15.86C9.24 15.92 9.38 15.92 9.55 15.92L10.67 15.92L8.09 13.15C8.43 12.92 8.74 12.67 8.99 12.36C9.24 12.05 9.46 11.75 9.65 11.38C9.83 11.02 9.97 10.61 10.07 10.19C10.16 9.77 10.22 9.32 10.22 8.85ZM8.82 8.85C8.82 9.46 8.74 10.02 8.57 10.51C8.40 11.00 8.16 11.41 7.85 11.75C7.55 12.08 7.18 12.35 6.73 12.53C6.29 12.71 5.80 12.80 5.26 12.80C4.73 12.80 4.24 12.71 3.79 12.53C3.35 12.35 2.97 12.08 2.66 11.75C2.35 11.41 2.13 11.00 1.96 10.51C1.79 10.02 1.71 9.46 1.71 8.85C1.71 8.23 1.79 7.67 1.96 7.18C2.13 6.69 2.35 6.29 2.66 5.95C2.97 5.61 3.33 5.35 3.78 5.17C4.23 4.98 4.73 4.90 5.26 4.90C5.80 4.90 6.27 4.98 6.72 5.17C7.17 5.35 7.53 5.61 7.84 5.95C8.15 6.29 8.40 6.69 8.57 7.18C8.74 7.67 8.82 8.23 8.82 8.85ZM16.81 12.82L16.48 12.36C16.42 12.28 16.35 12.25 16.25 12.25C16.16 12.25 16.06 12.28 15.97 12.36C15.53 12.75 15.01 12.95 14.42 12.95C13.78 12.95 13.29 12.71 12.92 12.25C12.56 11.77 12.36 11.10 12.36 10.26C12.36 9.42 12.53 8.78 12.89 8.30C13.08 8.08 13.30 7.90 13.55 7.78C13.80 7.67 14.07 7.60 14.32 7.60C14.57 7.60 14.83 7.62 15.11 7.66C15.22 7.69 15.39 7.71 15.61 7.78C15.61 7.80 15.62 7.94 15.65 8.25C15.68 8.55 15.69 8.72 15.71 8.78C15.74 8.92 15.81 8.97 15.95 8.97L16.51 8.97L16.51 7.13C15.64 6.79 14.94 6.62 14.41 6.62C13.36 6.62 12.52 6.96 11.91 7.64C11.34 8.32 11.06 9.17 11.06 10.26C11.06 11.38 11.37 12.28 11.97 12.95C12.54 13.59 13.27 13.92 14.18 13.92C15.33 13.92 16.23 13.55 16.81 12.82Z"></path></g><defs data-v-423bf9ae=""><linearGradient data-v-423bf9ae="" gradientTransform="rotate(25)" id="a786ac23-f05e-4577-8ec0-23b49ec7ba6a" x1="0%" y1="0%" x2="100%" y2="0%"><stop data-v-423bf9ae="" offset="0%" style="stop-color: rgb(233, 13, 202); stop-opacity: 1;"></stop><stop data-v-423bf9ae="" offset="100%" style="stop-color: rgb(21, 54, 241); stop-opacity: 1;"></stop></linearGradient></defs><g data-v-423bf9ae="" id="0515741f-b8aa-4edc-b88e-64940dd31ad3" transform="matrix(3.860175764033615,0,0,3.860175764033615,0.23718777546216074,-16.421744111390325)" stroke="none" fill="url(#a786ac23-f05e-4577-8ec0-23b49ec7ba6a)"><path d="M12.289 5.343v19.9L1 13.954V5.343h11.289m1-1H0v10.026l13.289 13.289V4.343zM31 5.343v8.612L19.711 25.243v-19.9H31m1-1H18.711v23.315L32 14.369V4.343z"></path></g><!----></svg>